<svg xmlns="http://www.w3.org/2000/svg" xmlns:xlink="http://www.w3.org/1999/xlink" contentStyleType="text/css" data-diagram-type="DESCRIPTION" height="247px" preserveAspectRatio="none" style="width:2227px;height:247px;background:#FFFFFF;" version="1.1" viewBox="0 0 2227 247" width="2227px" zoomAndPan="magnify"><defs/><g><!--cluster Task Management System--><g id="cluster_Task Management System"><rect fill="transparent" height="96.7" rx="2.5" ry="2.5" style="stroke:#181818;stroke-width:1;" width="1760" x="7" y="144.8"/><text fill="#000000" font-family="sans-serif" font-size="14" font-weight="bold" lengthAdjust="spacing" textLength="207.7578" x="783.1211" y="159.7951">Task Management System</text></g><g id="elem_Add Task"><ellipse cx="80.9951" cy="202.6484" fill="#F1F1F1" rx="58.0751" ry="14.7584" style="stroke:#181818;stroke-width:0.5;"/><text fill="#000000" font-family="sans-serif" font-size="14" lengthAdjust="spacing" textLength="64.333" x="45.8286" y="206.3959">Add Task</text></g><g id="elem_Edit Task"><ellipse cx="231.9965" cy="202.6471" fill="#F1F1F1" rx="57.8965" ry="14.7571" style="stroke:#181818;stroke-width:0.5;"/><text fill="#000000" font-family="sans-serif" font-size="14" lengthAdjust="spacing" textLength="64.0938" x="196.9496" y="206.3946">Edit Task</text></g><g id="elem_Delete Task"><ellipse cx="390.9961" cy="202.6512" fill="#F1F1F1" rx="66.4561" ry="15.6912" style="stroke:#181818;stroke-width:0.5;"/><text fill="#000000" font-family="sans-serif" font-size="14" lengthAdjust="spacing" textLength="82.9814" x="346.5054" y="206.3988">Delete Task</text></g><g id="elem_Toggle Task Completion"><ellipse cx="595.0034" cy="202.6507" fill="#F1F1F1" rx="102.2534" ry="22.8507" style="stroke:#181818;stroke-width:0.5;"/><text fill="#000000" font-family="sans-serif" font-size="14" lengthAdjust="spacing" textLength="169.0117" x="510.4975" y="205.4974">Toggle Task Completion</text></g><g id="elem_Filter Tasks"><ellipse cx="797.9985" cy="202.6517" fill="#F1F1F1" rx="65.4085" ry="15.4817" style="stroke:#181818;stroke-width:0.5;"/><text fill="#000000" font-family="sans-serif" font-size="14" lengthAdjust="spacing" textLength="79.9668" x="755.0151" y="206.3993">Filter Tasks</text></g><g id="elem_Search Tasks"><ellipse cx="967.996" cy="202.6492" fill="#F1F1F1" rx="69.946" ry="16.3892" style="stroke:#181818;stroke-width:0.5;"/><text fill="#000000" font-family="sans-serif" font-size="14" lengthAdjust="spacing" textLength="92.6816" x="918.6552" y="206.3968">Search Tasks</text></g><g id="elem_Reorder Tasks"><ellipse cx="1146.0008" cy="202.6522" fill="#F1F1F1" rx="72.7608" ry="16.9522" style="stroke:#181818;stroke-width:0.5;"/><text fill="#000000" font-family="sans-serif" font-size="14" lengthAdjust="spacing" textLength="100.1943" x="1092.9036" y="206.3997">Reorder Tasks</text></g><g id="elem_View Statistics"><ellipse cx="1327.0021" cy="202.6484" fill="#F1F1F1" rx="73.4421" ry="17.0884" style="stroke:#181818;stroke-width:0.5;"/><text fill="#000000" font-family="sans-serif" font-size="14" lengthAdjust="spacing" textLength="101.9785" x="1273.0129" y="206.396">View Statistics</text></g><g id="elem_Share Tasks"><ellipse cx="1503.0022" cy="202.6524" fill="#F1F1F1" rx="67.1622" ry="15.8324" style="stroke:#181818;stroke-width:0.5;"/><text fill="#000000" font-family="sans-serif" font-size="14" lengthAdjust="spacing" textLength="84.9844" x="1457.51" y="206.4">Share Tasks</text></g><g id="elem_Toggle Theme"><ellipse cx="1677.9973" cy="202.6475" fill="#F1F1F1" rx="72.7373" ry="16.9475" style="stroke:#181818;stroke-width:0.5;"/><text fill="#000000" font-family="sans-serif" font-size="14" lengthAdjust="spacing" textLength="100.1328" x="1624.9309" y="206.395">Toggle Theme</text></g><!--entity User--><g id="elem_User"><ellipse cx="882.9951" cy="14" fill="#F1F1F1" rx="8" ry="8" style="stroke:#181818;stroke-width:0.5;"/><path d="M882.9951,22 L882.9951,49 M869.9951,30 L895.9951,30 M882.9951,49 L869.9951,64 M882.9951,49 L895.9951,64 " fill="transparent" style="stroke:#181818;stroke-width:0.5;"/><text fill="#000000" font-family="sans-serif" font-size="14" lengthAdjust="spacing" textLength="31.9102" x="867.04" y="78.4951">User</text></g><!--link User to Add Task--><g id="link_User_Add Task"><path d="M866.74,44.72 C757.61,45.36 134.36,51.62 79,111.8 C60.09,132.35 66.6292,162.4229 73.4592,182.0629 " fill="transparent" id="User-to-Add Task" style="stroke:#181818;stroke-width:1;"/><polygon fill="#181818" points="75.43,187.73,76.2519,177.9155,73.7877,183.0074,68.6958,180.5432,75.43,187.73" style="stroke:#181818;stroke-width:1;"/><text fill="#000000" font-family="sans-serif" font-size="13" lengthAdjust="spacing" textLength="106.7676" x="80" y="124.8669">Adds a new task</text></g><!--link User to Edit Task--><g id="link_User_Edit Task"><path d="M866.75,44.98 C767.73,47.14 248.17,60.85 202,111.8 C182.34,133.49 200.7955,163.7639 216.1355,183.0539 " fill="transparent" id="User-to-Edit Task" style="stroke:#181818;stroke-width:1;"/><polygon fill="#181818" points="219.87,187.75,217.399,178.2162,216.7579,183.8366,211.1375,183.1955,219.87,187.75" style="stroke:#181818;stroke-width:1;"/><text fill="#000000" font-family="sans-serif" font-size="13" lengthAdjust="spacing" textLength="139.1914" x="203" y="124.8669">Edits an existing task</text></g><!--link User to Delete Task--><g id="link_User_Delete Task"><path d="M866.77,45.47 C782.01,49.94 392.61,72.48 358,111.8 C338.79,133.63 357.4107,162.9975 373.5607,182.3075 " fill="transparent" id="User-to-Delete Task" style="stroke:#181818;stroke-width:1;"/><polygon fill="#181818" points="377.41,186.91,374.7044,177.4401,374.2022,183.0746,368.5677,182.5725,377.41,186.91" style="stroke:#181818;stroke-width:1;"/><text fill="#000000" font-family="sans-serif" font-size="13" lengthAdjust="spacing" textLength="93.082" x="359" y="124.8669">Deletes a task</text></g><!--link User to Toggle Task Completion--><g id="link_User_Toggle Task Completion"><path d="M866.56,44.59 C795.68,44.73 517.29,49.29 464,111.8 C459.1,117.55 460.17,122.29 464,128.8 C466.67,133.34 513.1169,158.5035 550.7569,178.4235 " fill="transparent" id="User-to-Toggle Task Completion" style="stroke:#181818;stroke-width:1;"/><polygon fill="#181818" points="556.06,181.23,549.9763,173.4847,551.6407,178.8912,546.2343,180.5556,556.06,181.23" style="stroke:#181818;stroke-width:1;"/><text fill="#000000" font-family="sans-serif" font-size="13" lengthAdjust="spacing" textLength="239.2559" x="465" y="124.8669">Marks task as completed/incomplete</text></g><!--link User to Filter Tasks--><g id="link_User_Filter Tasks"><path d="M866.67,45.48 C831.71,48.24 749.96,60.17 715,111.8 C710.76,118.05 711.88,121.92 715,128.8 C726.86,155 748.2395,172.3181 768.1195,184.8081 " fill="transparent" id="User-to-Filter Tasks" style="stroke:#181818;stroke-width:1;"/><polygon fill="#181818" points="773.2,188,767.7072,179.8251,768.9662,185.3401,763.4513,186.5991,773.2,188" style="stroke:#181818;stroke-width:1;"/><text fill="#000000" font-family="sans-serif" font-size="13" lengthAdjust="spacing" textLength="289.0532" x="716" y="124.8669">Filters tasks by status (all/active/completed)</text></g><!--link User to Search Tasks--><g id="link_User_Search Tasks"><path d="M899.1,47.64 C927.43,53.88 985.55,71.21 1010,111.8 C1025.11,136.87 1005.7791,163.9358 988.2991,182.1958 " fill="transparent" id="User-to-Search Tasks" style="stroke:#181818;stroke-width:1;"/><polygon fill="#181818" points="984.15,186.53,993.2631,182.7947,987.6076,182.9182,987.4841,177.2627,984.15,186.53" style="stroke:#181818;stroke-width:1;"/><text fill="#000000" font-family="sans-serif" font-size="13" lengthAdjust="spacing" textLength="241.4585" x="1016" y="124.8669">Searches tasks by title or description</text></g><!--link User to Reorder Tasks--><g id="link_User_Reorder Tasks"><path d="M899.37,44.86 C966.31,46.1 1217.91,54.55 1266,111.8 C1270.86,117.58 1270.6,122.81 1266,128.8 C1257.59,139.74 1248.47,130.89 1236,136.8 C1208.68,149.75 1185.5986,167.3223 1168.2886,181.9823 " fill="transparent" id="User-to-Reorder Tasks" style="stroke:#181818;stroke-width:1;"/><polygon fill="#181818" points="1163.71,185.86,1173.163,183.0959,1167.5255,182.6286,1167.9928,176.9911,1163.71,185.86" style="stroke:#181818;stroke-width:1;"/><text fill="#000000" font-family="sans-serif" font-size="13" lengthAdjust="spacing" textLength="215.4648" x="1271" y="124.8669">Drags and drops to reorder tasks</text></g><!--link User to View Statistics--><g id="link_User_View Statistics"><path d="M899.39,45.17 C992.67,48.3 1453.98,66.03 1495,111.8 C1500.04,117.43 1500.06,123.19 1495,128.8 C1483.48,141.58 1434.09,130.72 1418,136.8 C1388.96,147.77 1365.1431,166.35 1348.0031,181.75 " fill="transparent" id="User-to-View Statistics" style="stroke:#181818;stroke-width:1;"/><polygon fill="#181818" points="1343.54,185.76,1352.9081,182.7204,1347.2593,182.4183,1347.5613,176.7695,1343.54,185.76" style="stroke:#181818;stroke-width:1;"/><text fill="#000000" font-family="sans-serif" font-size="13" lengthAdjust="spacing" textLength="292.7349" x="1500" y="124.8669">Views task statistics (total/active/completed)</text></g><!--link User to Share Tasks--><g id="link_User_Share Tasks"><path d="M899.23,44.54 C1016.95,43.93 1737.08,43.03 1801,111.8 C1806.14,117.33 1806.24,123.36 1801,128.8 C1784.57,145.86 1610.29,128.8 1588,136.8 C1559.17,147.15 1536.4195,166.8343 1520.8795,182.5443 " fill="transparent" id="User-to-Share Tasks" style="stroke:#181818;stroke-width:1;"/><polygon fill="#181818" points="1516.66,186.81,1525.833,183.2245,1520.1762,183.2553,1520.1455,177.5985,1516.66,186.81" style="stroke:#181818;stroke-width:1;"/><text fill="#000000" font-family="sans-serif" font-size="13" lengthAdjust="spacing" textLength="165.1279" x="1805" y="124.8669">Shares tasks via QR code</text></g><!--link User to Toggle Theme--><g id="link_User_Toggle Theme"><path d="M899.15,45.02 C1031.99,48.09 1940.27,70.62 1979,111.8 C2048.03,185.19 1866.6587,199.3269 1757.0087,201.5769 " fill="transparent" id="User-to-Toggle Theme" style="stroke:#181818;stroke-width:1;"/><polygon fill="#181818" points="1751.01,201.7,1760.0902,205.5145,1756.0089,201.5974,1759.926,197.5162,1751.01,201.7" style="stroke:#181818;stroke-width:1;"/><text fill="#000000" font-family="sans-serif" font-size="13" lengthAdjust="spacing" textLength="230.6421" x="1989" y="124.8669">Switches between light/dark theme</text></g><!--SRC=[XP9DRy8m38Rl_HLMBy01zRx3f6biDmu3jhjfl3QYJQhOmD2q_pudvQFLa7QfOkTzd_eZ4rZGftK4KXDWAJvawGllJ27B9iFhFHEKoCHPe5BGLGr1la7UmH8TLjII4rYVMAZDuJk3n83v_16cJyP0LCxW0N8D610S7K4qbu-KByRAJHeZrJgWByjYNNN7iQ26X6wUFev_-AlT-2fMdOf-zcsdIkjTiYqnx3XP01dA_f9COTtbF4QzsaRq756S07sYHp1iJy22icUOOjCKEbHxeEAAdOrXQy9GrWDOdw01JQnevRePGrm6syN2nv0L-M169Iq2Ld5y1apmdS8yXBCeSSV-3wiRMMlHSTHbJuYvyrJuUWDJyOB_DrLZe65FCRvqTB08RokTiw7xAwhrFVMsevKqYYt9aSX1OwjQ2gFxYi-oLV_FBm00]--></g></svg>